<svg width="32" height="32" viewBox="0 0 32 32" fill="none" xmlns="http://www.w3.org/2000/svg">
  <rect width="32" height="32" rx="6" fill="#176B4D"/>
  <path d="M9 9.5C9 8.67 12.13 8 16 8C19.87 8 23 8.67 23 9.5V13.5C23 14.33 19.87 15 16 15C12.13 15 9 14.33 9 13.5V9.5Z" stroke="white" stroke-width="1.7"/>
  <path d="M9 13.5V18.5C9 19.33 12.13 20 16 20C19.87 20 23 19.33 23 18.5V13.5" stroke="white" stroke-width="1.7"/>
  <path d="M9 18.5V22.5C9 23.33 12.13 24 16 24C19.87 24 23 23.33 23 22.5V18.5" stroke="white" stroke-width="1.7"/>
</svg>
